<svg xmlns="http://www.w3.org/2000/svg" viewBox="0 0 720 460" font-family="-apple-system, 'Segoe UI', 'Microsoft YaHei', sans-serif" role="img"><rect width="720" height="460" fill="#f8fafc"/><text x="360.0" y="34" text-anchor="middle" font-size="18" font-weight="700" fill="#0f172a">信号发生器 / 任意波形发生器（AWG）</text><text x="360.0" y="56" text-anchor="middle" font-size="12.5" fill="#475569">产生正弦 / 方波 / 三角 / 任意波形，注入被测件做激励</text><rect x="130" y="86" width="460" height="300" rx="14" ry="14" fill="#eef2f7" stroke="#94a3b8" stroke-width="2" /><rect x="158" y="116" width="300" height="150" rx="8" ry="8" fill="#0b1220" stroke="#06303a" stroke-width="2" /><polyline points="178,191 182,187 187,182 191,178 195,174 200,170 204,166 208,163 213,160 217,157 221,155 226,153 230,151 234,150 239,149 243,149 247,149 252,150 256,151 260,153 265,155 269,157 273,160 278,163 282,166 286,170 291,174 295,178 299,182 304,187 308,191 312,195 317,200 321,204 325,208 330,212 334,216 338,219 343,222 347,225 351,227 356,229 360,231 364,232 369,233 373,233 377,233 382,232 386,231 390,229 395,227 399,225 403,222 408,219 412,216 416,212 421,208 425,204 429,200 434,195 438,191" fill="none" stroke="#39ff14" stroke-width="2.4" stroke-linejoin="round" stroke-linecap="round"/><text x="172" y="138" font-size="12" fill="#7ee787" font-weight="600" text-anchor="start" font-family="ui-monospace, 'Cascadia Code', Consolas, Menlo, monospace">OUT: Sine  1 kHz / 2 Vpp</text><text x="172" y="254" font-size="11" fill="#5ea9c4" font-weight="500" text-anchor="start" font-family="ui-monospace, 'Cascadia Code', Consolas, Menlo, monospace">50Ω  TTL  Sync</text><rect x="158" y="282" width="52" height="26" rx="6" ry="6" fill="#0ea5e9" stroke="#94a3b8" stroke-width="1" /><text x="184" y="299" font-size="11" fill="#fff" font-weight="600" text-anchor="middle" font-family="-apple-system, 'Segoe UI', 'Microsoft YaHei', sans-serif">Sine</text><rect x="216" y="282" width="52" height="26" rx="6" ry="6" fill="#dbe7ef" stroke="#94a3b8" stroke-width="1" /><text x="242" y="299" font-size="11" fill="#334" font-weight="600" text-anchor="middle" font-family="-apple-system, 'Segoe UI', 'Microsoft YaHei', sans-serif">Square</text><rect x="274" y="282" width="52" height="26" rx="6" ry="6" fill="#dbe7ef" stroke="#94a3b8" stroke-width="1" /><text x="300" y="299" font-size="11" fill="#334" font-weight="600" text-anchor="middle" font-family="-apple-system, 'Segoe UI', 'Microsoft YaHei', sans-serif">Tri</text><rect x="332" y="282" width="52" height="26" rx="6" ry="6" fill="#dbe7ef" stroke="#94a3b8" stroke-width="1" /><text x="358" y="299" font-size="11" fill="#334" font-weight="600" text-anchor="middle" font-family="-apple-system, 'Segoe UI', 'Microsoft YaHei', sans-serif">Ramp</text><rect x="390" y="282" width="52" height="26" rx="6" ry="6" fill="#dbe7ef" stroke="#94a3b8" stroke-width="1" /><text x="416" y="299" font-size="11" fill="#334" font-weight="600" text-anchor="middle" font-family="-apple-system, 'Segoe UI', 'Microsoft YaHei', sans-serif">Arb</text><circle cx="520" cy="208" r="30" fill="#111827" stroke="#374151" stroke-width="3"/><line x1="520" y1="208" x2="542" y2="194" stroke="#0ea5e9" stroke-width="4" stroke-dasharray="round"/><circle cx="520" cy="208" r="5" fill="#0ea5e9" stroke="none" stroke-width="1"/><text x="520" y="258" font-size="11" fill="#334" font-weight="600" text-anchor="middle" font-family="-apple-system, 'Segoe UI', 'Microsoft YaHei', sans-serif">FREQ</text><circle cx="520" cy="282" r="30" fill="#111827" stroke="#374151" stroke-width="3"/><line x1="520" y1="282" x2="542" y2="268" stroke="#0ea5e9" stroke-width="4" stroke-dasharray="round"/><circle cx="520" cy="282" r="5" fill="#0ea5e9" stroke="none" stroke-width="1"/><text x="520" y="332" font-size="11" fill="#334" font-weight="600" text-anchor="middle" font-family="-apple-system, 'Segoe UI', 'Microsoft YaHei', sans-serif">AMPL</text><circle cx="150" cy="240" r="12" fill="#1f2937" stroke="#0b0f14" stroke-width="2"/><circle cx="150" cy="240" r="5" fill="#0b0f14" stroke="none" stroke-width="1"/><text x="150" y="270" font-size="11" fill="#334" font-weight="600" text-anchor="middle" font-family="-apple-system, 'Segoe UI', 'Microsoft YaHei', sans-serif">CH1 OUT</text><text x="150" y="320" font-size="11" fill="#0c4a6e" font-weight="500" text-anchor="middle" font-family="-apple-system, 'Segoe UI', 'Microsoft YaHei', sans-serif">1 µHz–50 MHz</text><text x="150" y="338" font-size="11" fill="#0c4a6e" font-weight="500" text-anchor="middle" font-family="-apple-system, 'Segoe UI', 'Microsoft YaHei', sans-serif">1 mV–10 Vpp</text><text x="360.0" y="444" text-anchor="middle" font-size="12" fill="#64748b">信号发生器 / AWG 前面板：LCD 显示输出波形，旋钮调频率与幅度，BNC 输出测试激励</text></svg>